<svg width="61" height="61" viewBox="0 0 61 61" fill="none" xmlns="http://www.w3.org/2000/svg">
<path d="M58 7H13V59H58V7Z" fill="white"/>
<path d="M57.378 0.000999451H3.352C1.502 0.000999451 0 1.5 0 3.353V57.379C0 59.232 1.502 60.733 3.352 60.733H32.438V37.214H24.524V28.047H32.438V21.287C32.438 13.444 37.227 9.171 44.225 9.171C47.58 9.171 50.457 9.422 51.296 9.531V17.729L46.442 17.731C42.637 17.731 41.903 19.54 41.903 22.193V28.044H50.981L49.794 37.21H41.902V60.73H57.377C59.229 60.73 60.732 59.227 60.732 57.379V3.351C60.731 1.5 59.23 0.000999451 57.378 0.000999451Z" fill="black"/>
</svg>
