<svg width="325" height="325" viewBox="0 0 325 325" fill="none" xmlns="http://www.w3.org/2000/svg">
<g clip-path="url(#clip0)">
<path d="M295.52 121.875H265.904V151.355H236.424V180.971H265.904V210.451H295.52V180.971H325V151.355H295.52V121.875Z" fill="white"/>
<path d="M101.562 264.062C160.171 264.062 199.103 222.923 199.103 164.856C199.103 158.207 198.412 153.075 197.451 147.956H101.576V182.867H159.223C156.867 197.695 141.768 226.647 101.576 226.647C66.95 226.647 38.675 197.966 38.675 162.5C38.675 127.034 66.9365 98.3396 101.576 98.3396C121.387 98.3396 134.55 106.79 142.039 113.994L169.609 87.5333C151.856 70.9177 128.998 60.9375 101.562 60.9375C45.4458 60.9375 0 106.383 0 162.5C0 218.617 45.4458 264.062 101.562 264.062V264.062Z" fill="white"/>
</g>
<defs>
<clipPath id="clip0">
<rect width="325" height="325" fill="white"/>
</clipPath>
</defs>
</svg>
