<svg width="39" height="31" viewBox="0 0 39 31" fill="none" xmlns="http://www.w3.org/2000/svg">
<path d="M37.2078 4.56797L37.6871 3.85124L36.8988 4.20042C35.9157 4.63586 34.8758 4.96199 33.7881 5.17386C34.9213 4.25611 35.7868 3.01983 36.2419 1.6098L36.4434 0.985693L35.8776 1.31732C34.5106 2.11854 33.0009 2.71254 31.3966 3.03727C30.0121 1.62239 28.0704 0.75 25.926 0.75C21.7101 0.75 18.289 4.13781 18.289 8.32C18.289 8.79763 18.3342 9.26504 18.4201 9.72153C12.4875 9.33245 7.23559 6.4745 3.70108 2.17719L3.47446 1.90166L3.29283 2.20872C2.63019 3.329 2.258 4.63991 2.258 6.022C2.258 8.33142 3.2971 10.3974 4.93969 11.7888C4.09031 11.6579 3.28839 11.3766 2.56297 10.9841L2.194 10.7845V11.204V11.2041V11.2043V11.2044V11.2045V11.2046V11.2048V11.2049V11.205V11.2052V11.2053V11.2054V11.2056V11.2057V11.2058V11.206V11.2061V11.2062V11.2064V11.2065V11.2066V11.2068V11.2069V11.207V11.2072V11.2073V11.2074V11.2076V11.2077V11.2078V11.208V11.2081V11.2083V11.2084V11.2085V11.2087V11.2088V11.2089V11.2091V11.2092V11.2094V11.2095V11.2096V11.2098V11.2099V11.21V11.2102V11.2103V11.2105V11.2106V11.2107V11.2109V11.211V11.2112V11.2113V11.2115V11.2116V11.2117V11.2119V11.212V11.2122V11.2123V11.2125V11.2126V11.2127V11.2129V11.213V11.2132V11.2133V11.2135V11.2136V11.2138V11.2139V11.214V11.2142V11.2143V11.2145V11.2146V11.2148V11.2149V11.2151V11.2152V11.2154V11.2155V11.2157V11.2158V11.216V11.2161V11.2163V11.2164V11.2166V11.2167V11.2169V11.217V11.2171V11.2173V11.2175V11.2176V11.2178V11.2179V11.2181V11.2182V11.2184V11.2185V11.2187V11.2188V11.219V11.2191V11.2193V11.2194V11.2196V11.2197V11.2199V11.22V11.2202V11.2203V11.2205V11.2207V11.2208V11.221V11.2211V11.2213V11.2214V11.2216V11.2217V11.2219V11.222V11.2222V11.2224V11.2225V11.2227V11.2228V11.223V11.2231V11.2233V11.2235V11.2236V11.2238V11.2239V11.2241V11.2242V11.2244V11.2246V11.2247V11.2249V11.225V11.2252V11.2254V11.2255V11.2257V11.2258V11.226V11.2262V11.2263V11.2265V11.2266V11.2268V11.227V11.2271V11.2273V11.2275V11.2276V11.2278V11.2279V11.2281V11.2283V11.2284V11.2286V11.2288V11.2289V11.2291V11.2292V11.2294V11.2296V11.2297V11.2299V11.2301V11.2302V11.2304V11.2306V11.2307V11.2309V11.231V11.2312V11.2314V11.2315V11.2317V11.2319V11.232V11.2322V11.2324V11.2325V11.2327V11.2329V11.233V11.2332V11.2334V11.2335V11.2337V11.2339V11.234V11.2342V11.2344V11.2345V11.2347V11.2349V11.2351V11.2352V11.2354V11.2356V11.2357V11.2359V11.2361V11.2362V11.2364V11.2366V11.2367V11.2369V11.2371V11.2373V11.2374V11.2376V11.2378V11.2379V11.2381V11.2383V11.2384V11.2386V11.2388V11.239V11.2391V11.2393V11.2395V11.2396V11.2398V11.24V11.2402V11.2403V11.2405V11.2407V11.2409V11.241V11.2412V11.2414V11.2415V11.2417V11.2419V11.2421V11.2422V11.2424V11.2426V11.2428V11.2429V11.2431V11.2433V11.2435V11.2436V11.2438V11.244V11.2441V11.2443V11.2445V11.2447V11.2448V11.245V11.2452V11.2454V11.2455V11.2457V11.2459V11.2461V11.2463V11.2464V11.2466V11.2468V11.247V11.2471V11.2473V11.2475V11.2477V11.2478V11.248V11.2482V11.2484V11.2485V11.2487V11.2489V11.2491V11.2493V11.2494V11.2496V11.2498V11.25V11.2501V11.2503V11.2505V11.2507V11.2509V11.251V11.2512V11.2514V11.2516V11.2517V11.2519V11.2521V11.2523V11.2525V11.2526V11.2528V11.253V11.2532V11.2534V11.2535V11.2537V11.2539V11.2541V11.2542V11.2544V11.2546V11.2548V11.255V11.2551V11.2553V11.2555V11.2557V11.2559V11.256V11.2562V11.2564V11.2566V11.2568V11.2569V11.2571V11.2573V11.2575V11.2577V11.2579V11.258V11.2582V11.2584V11.2586V11.2588V11.2589V11.2591V11.2593V11.2595V11.2597V11.2598V11.26V11.2602V11.2604V11.2606V11.2607V11.2609V11.2611V11.2613V11.2615V11.2617V11.2618V11.262V11.2622V11.2624V11.2626V11.2627V11.2629V11.2631V11.2633V11.2635V11.2637V11.2638V11.264V11.2642V11.2644V11.2646V11.2648V11.2649V11.2651V11.2653V11.2655V11.2657V11.2658V11.266V11.2662V11.2664V11.2666V11.2668V11.2669V11.2671V11.2673V11.2675V11.2677V11.2679V11.268V11.2682V11.2684V11.2686V11.2688V11.269V11.2691V11.2693V11.2695V11.2697V11.2699V11.2701V11.2702V11.2704V11.2706V11.2708V11.271V11.2712V11.2713V11.2715V11.2717V11.2719V11.2721V11.2723V11.2724V11.2726V11.2728V11.273V11.2732V11.2734V11.2735V11.2737V11.2739V11.2741V11.2743V11.2745V11.2746V11.2748V11.275V11.2752V11.2754V11.2756V11.2757V11.2759V11.2761V11.2763V11.2765V11.2767V11.2768V11.277V11.2772V11.2774V11.2776V11.2778V11.2779V11.2781V11.2783V11.2785V11.2787V11.2789V11.279V11.2792V11.2794V11.2796V11.2798V11.28V11.2801V11.2803V11.2805V11.2807V11.2809V11.2811V11.2812V11.2814V11.2816V11.2818V11.282V11.2822V11.2823V11.2825V11.2827V11.2829V11.2831V11.2833V11.2834V11.2836V11.2838V11.284V11.2842V11.2844V11.2845V11.2847V11.2849V11.2851V11.2853V11.2854V11.2856V11.2858V11.286V11.2862V11.2864V11.2865V11.2867V11.2869V11.2871V11.2873V11.2875V11.2876V11.2878V11.288V11.2882V11.2884V11.2885V11.2887V11.2889V11.2891V11.2893V11.2895V11.2896V11.2898V11.29C2.194 14.5895 4.31914 17.391 7.27953 18.4317C6.9996 18.466 6.71467 18.484 6.426 18.484C5.96771 18.484 5.51803 18.4321 5.07829 18.353L4.66757 18.279L4.79617 18.676C5.70039 21.4676 8.20197 23.5588 11.2336 23.8904C8.84214 25.5745 5.91813 26.569 2.758 26.569C2.16954 26.569 1.59459 26.5355 1.02706 26.4668L0.863268 26.9262C4.17267 29.0215 8.10279 30.25 12.321 30.25C26.0708 30.25 33.588 18.9537 33.588 9.166C33.588 8.89032 33.5806 8.61608 33.5689 8.34551C34.997 7.31647 36.2296 6.03087 37.2078 4.56797Z" fill="white" stroke="black" stroke-width="0.5"/>
</svg>
